<mxfile host="app.diagrams.net" modified="2020-09-08T01:29:00.954Z" agent="5.0 (Windows NT 10.0; Win64; x64) AppleWebKit/537.36 (KHTML, like Gecko) Chrome/85.0.4183.83 Safari/537.36" etag="we-Q3F-Bf4Ke9Ab0RAji" version="13.6.6" type="github">
  <diagram id="R2lEEEUBdFMjLlhIrx00" name="Page-1">
    <mxGraphModel dx="868" dy="450" grid="1" gridSize="10" guides="1" tooltips="1" connect="1" arrows="1" fold="1" page="1" pageScale="1" pageWidth="850" pageHeight="1100" math="0" shadow="0" extFonts="Permanent Marker^https://fonts.googleapis.com/css?family=Permanent+Marker">
      <root>
        <mxCell id="0" />
        <mxCell id="1" parent="0" />
        <mxCell id="dDVhKl1gEV_FFzRzYjG9-1" value="Peliculas" style="shape=table;startSize=30;container=1;collapsible=1;childLayout=tableLayout;fixedRows=1;rowLines=0;fontStyle=1;align=center;resizeLast=1;" parent="1" vertex="1">
          <mxGeometry x="120" y="100" width="250" height="430" as="geometry" />
        </mxCell>
        <mxCell id="dDVhKl1gEV_FFzRzYjG9-76" value="" style="shape=partialRectangle;collapsible=0;dropTarget=0;pointerEvents=0;fillColor=none;top=0;left=0;bottom=1;right=0;points=[[0,0.5],[1,0.5]];portConstraint=eastwest;" parent="dDVhKl1gEV_FFzRzYjG9-1" vertex="1">
          <mxGeometry y="30" width="250" height="30" as="geometry" />
        </mxCell>
        <mxCell id="dDVhKl1gEV_FFzRzYjG9-77" value="PK" style="shape=partialRectangle;connectable=0;fillColor=none;top=0;left=0;bottom=0;right=0;fontStyle=1;overflow=hidden;" parent="dDVhKl1gEV_FFzRzYjG9-76" vertex="1">
          <mxGeometry width="30" height="30" as="geometry" />
        </mxCell>
        <mxCell id="dDVhKl1gEV_FFzRzYjG9-78" value="Cod. País de filmación" style="shape=partialRectangle;connectable=0;fillColor=none;top=0;left=0;bottom=0;right=0;align=left;spacingLeft=6;fontStyle=5;overflow=hidden;" parent="dDVhKl1gEV_FFzRzYjG9-76" vertex="1">
          <mxGeometry x="30" width="220" height="30" as="geometry" />
        </mxCell>
        <mxCell id="dDVhKl1gEV_FFzRzYjG9-2" value="" style="shape=partialRectangle;collapsible=0;dropTarget=0;pointerEvents=0;fillColor=none;top=0;left=0;bottom=1;right=0;points=[[0,0.5],[1,0.5]];portConstraint=eastwest;" parent="dDVhKl1gEV_FFzRzYjG9-1" vertex="1">
          <mxGeometry y="60" width="250" height="30" as="geometry" />
        </mxCell>
        <mxCell id="dDVhKl1gEV_FFzRzYjG9-3" value="PK" style="shape=partialRectangle;connectable=0;fillColor=none;top=0;left=0;bottom=0;right=0;fontStyle=1;overflow=hidden;" parent="dDVhKl1gEV_FFzRzYjG9-2" vertex="1">
          <mxGeometry width="30" height="30" as="geometry" />
        </mxCell>
        <mxCell id="dDVhKl1gEV_FFzRzYjG9-4" value="Cod. Película" style="shape=partialRectangle;connectable=0;fillColor=none;top=0;left=0;bottom=0;right=0;align=left;spacingLeft=6;fontStyle=5;overflow=hidden;" parent="dDVhKl1gEV_FFzRzYjG9-2" vertex="1">
          <mxGeometry x="30" width="220" height="30" as="geometry" />
        </mxCell>
        <mxCell id="dDVhKl1gEV_FFzRzYjG9-5" value="" style="shape=partialRectangle;collapsible=0;dropTarget=0;pointerEvents=0;fillColor=none;top=0;left=0;bottom=0;right=0;points=[[0,0.5],[1,0.5]];portConstraint=eastwest;" parent="dDVhKl1gEV_FFzRzYjG9-1" vertex="1">
          <mxGeometry y="90" width="250" height="30" as="geometry" />
        </mxCell>
        <mxCell id="dDVhKl1gEV_FFzRzYjG9-6" value="" style="shape=partialRectangle;connectable=0;fillColor=none;top=0;left=0;bottom=0;right=0;editable=1;overflow=hidden;" parent="dDVhKl1gEV_FFzRzYjG9-5" vertex="1">
          <mxGeometry width="30" height="30" as="geometry" />
        </mxCell>
        <mxCell id="dDVhKl1gEV_FFzRzYjG9-7" value="Nombre del país" style="shape=partialRectangle;connectable=0;fillColor=none;top=0;left=0;bottom=0;right=0;align=left;spacingLeft=6;overflow=hidden;" parent="dDVhKl1gEV_FFzRzYjG9-5" vertex="1">
          <mxGeometry x="30" width="220" height="30" as="geometry" />
        </mxCell>
        <mxCell id="dDVhKl1gEV_FFzRzYjG9-8" value="" style="shape=partialRectangle;collapsible=0;dropTarget=0;pointerEvents=0;fillColor=none;top=0;left=0;bottom=0;right=0;points=[[0,0.5],[1,0.5]];portConstraint=eastwest;" parent="dDVhKl1gEV_FFzRzYjG9-1" vertex="1">
          <mxGeometry y="120" width="250" height="30" as="geometry" />
        </mxCell>
        <mxCell id="dDVhKl1gEV_FFzRzYjG9-9" value="" style="shape=partialRectangle;connectable=0;fillColor=none;top=0;left=0;bottom=0;right=0;editable=1;overflow=hidden;" parent="dDVhKl1gEV_FFzRzYjG9-8" vertex="1">
          <mxGeometry width="30" height="30" as="geometry" />
        </mxCell>
        <mxCell id="dDVhKl1gEV_FFzRzYjG9-10" value="Nombre de la película" style="shape=partialRectangle;connectable=0;fillColor=none;top=0;left=0;bottom=0;right=0;align=left;spacingLeft=6;overflow=hidden;" parent="dDVhKl1gEV_FFzRzYjG9-8" vertex="1">
          <mxGeometry x="30" width="220" height="30" as="geometry" />
        </mxCell>
        <mxCell id="dDVhKl1gEV_FFzRzYjG9-11" value="" style="shape=partialRectangle;collapsible=0;dropTarget=0;pointerEvents=0;fillColor=none;top=0;left=0;bottom=0;right=0;points=[[0,0.5],[1,0.5]];portConstraint=eastwest;" parent="dDVhKl1gEV_FFzRzYjG9-1" vertex="1">
          <mxGeometry y="150" width="250" height="30" as="geometry" />
        </mxCell>
        <mxCell id="dDVhKl1gEV_FFzRzYjG9-12" value="" style="shape=partialRectangle;connectable=0;fillColor=none;top=0;left=0;bottom=0;right=0;editable=1;overflow=hidden;" parent="dDVhKl1gEV_FFzRzYjG9-11" vertex="1">
          <mxGeometry width="30" height="30" as="geometry" />
        </mxCell>
        <mxCell id="dDVhKl1gEV_FFzRzYjG9-13" value="Cod. Género " style="shape=partialRectangle;connectable=0;fillColor=none;top=0;left=0;bottom=0;right=0;align=left;spacingLeft=6;overflow=hidden;" parent="dDVhKl1gEV_FFzRzYjG9-11" vertex="1">
          <mxGeometry x="30" width="220" height="30" as="geometry" />
        </mxCell>
        <mxCell id="dDVhKl1gEV_FFzRzYjG9-53" value="" style="shape=partialRectangle;collapsible=0;dropTarget=0;pointerEvents=0;fillColor=none;top=0;left=0;bottom=0;right=0;points=[[0,0.5],[1,0.5]];portConstraint=eastwest;" parent="dDVhKl1gEV_FFzRzYjG9-1" vertex="1">
          <mxGeometry y="180" width="250" height="30" as="geometry" />
        </mxCell>
        <mxCell id="dDVhKl1gEV_FFzRzYjG9-54" value="" style="shape=partialRectangle;connectable=0;fillColor=none;top=0;left=0;bottom=0;right=0;editable=1;overflow=hidden;" parent="dDVhKl1gEV_FFzRzYjG9-53" vertex="1">
          <mxGeometry width="30" height="30" as="geometry" />
        </mxCell>
        <mxCell id="dDVhKl1gEV_FFzRzYjG9-55" value="Descripción Género" style="shape=partialRectangle;connectable=0;fillColor=none;top=0;left=0;bottom=0;right=0;align=left;spacingLeft=6;overflow=hidden;" parent="dDVhKl1gEV_FFzRzYjG9-53" vertex="1">
          <mxGeometry x="30" width="220" height="30" as="geometry" />
        </mxCell>
        <mxCell id="dDVhKl1gEV_FFzRzYjG9-56" value="" style="shape=partialRectangle;collapsible=0;dropTarget=0;pointerEvents=0;fillColor=none;top=0;left=0;bottom=0;right=0;points=[[0,0.5],[1,0.5]];portConstraint=eastwest;" parent="dDVhKl1gEV_FFzRzYjG9-1" vertex="1">
          <mxGeometry y="210" width="250" height="30" as="geometry" />
        </mxCell>
        <mxCell id="dDVhKl1gEV_FFzRzYjG9-57" value="" style="shape=partialRectangle;connectable=0;fillColor=none;top=0;left=0;bottom=0;right=0;editable=1;overflow=hidden;" parent="dDVhKl1gEV_FFzRzYjG9-56" vertex="1">
          <mxGeometry width="30" height="30" as="geometry" />
        </mxCell>
        <mxCell id="dDVhKl1gEV_FFzRzYjG9-58" value="Argumento de la película" style="shape=partialRectangle;connectable=0;fillColor=none;top=0;left=0;bottom=0;right=0;align=left;spacingLeft=6;overflow=hidden;" parent="dDVhKl1gEV_FFzRzYjG9-56" vertex="1">
          <mxGeometry x="30" width="220" height="30" as="geometry" />
        </mxCell>
        <mxCell id="dDVhKl1gEV_FFzRzYjG9-70" value="" style="shape=partialRectangle;collapsible=0;dropTarget=0;pointerEvents=0;fillColor=none;top=0;left=0;bottom=0;right=0;points=[[0,0.5],[1,0.5]];portConstraint=eastwest;" parent="dDVhKl1gEV_FFzRzYjG9-1" vertex="1">
          <mxGeometry y="240" width="250" height="30" as="geometry" />
        </mxCell>
        <mxCell id="dDVhKl1gEV_FFzRzYjG9-71" value="" style="shape=partialRectangle;connectable=0;fillColor=none;top=0;left=0;bottom=0;right=0;editable=1;overflow=hidden;" parent="dDVhKl1gEV_FFzRzYjG9-70" vertex="1">
          <mxGeometry width="30" height="30" as="geometry" />
        </mxCell>
        <mxCell id="dDVhKl1gEV_FFzRzYjG9-72" value="Matrícula del Director" style="shape=partialRectangle;connectable=0;fillColor=none;top=0;left=0;bottom=0;right=0;align=left;spacingLeft=6;overflow=hidden;" parent="dDVhKl1gEV_FFzRzYjG9-70" vertex="1">
          <mxGeometry x="30" width="220" height="30" as="geometry" />
        </mxCell>
        <mxCell id="dDVhKl1gEV_FFzRzYjG9-73" value="" style="shape=partialRectangle;collapsible=0;dropTarget=0;pointerEvents=0;fillColor=none;top=0;left=0;bottom=0;right=0;points=[[0,0.5],[1,0.5]];portConstraint=eastwest;" parent="dDVhKl1gEV_FFzRzYjG9-1" vertex="1">
          <mxGeometry y="270" width="250" height="30" as="geometry" />
        </mxCell>
        <mxCell id="dDVhKl1gEV_FFzRzYjG9-74" value="" style="shape=partialRectangle;connectable=0;fillColor=none;top=0;left=0;bottom=0;right=0;editable=1;overflow=hidden;" parent="dDVhKl1gEV_FFzRzYjG9-73" vertex="1">
          <mxGeometry width="30" height="30" as="geometry" />
        </mxCell>
        <mxCell id="dDVhKl1gEV_FFzRzYjG9-75" value="Nombre del Director" style="shape=partialRectangle;connectable=0;fillColor=none;top=0;left=0;bottom=0;right=0;align=left;spacingLeft=6;overflow=hidden;" parent="dDVhKl1gEV_FFzRzYjG9-73" vertex="1">
          <mxGeometry x="30" width="220" height="30" as="geometry" />
        </mxCell>
        <mxCell id="dDVhKl1gEV_FFzRzYjG9-59" value="" style="shape=partialRectangle;collapsible=0;dropTarget=0;pointerEvents=0;fillColor=none;top=0;left=0;bottom=0;right=0;points=[[0,0.5],[1,0.5]];portConstraint=eastwest;" parent="dDVhKl1gEV_FFzRzYjG9-1" vertex="1">
          <mxGeometry y="300" width="250" height="30" as="geometry" />
        </mxCell>
        <mxCell id="dDVhKl1gEV_FFzRzYjG9-60" value="" style="shape=partialRectangle;connectable=0;fillColor=none;top=0;left=0;bottom=0;right=0;editable=1;overflow=hidden;" parent="dDVhKl1gEV_FFzRzYjG9-59" vertex="1">
          <mxGeometry width="30" height="30" as="geometry" />
        </mxCell>
        <mxCell id="dDVhKl1gEV_FFzRzYjG9-61" value="Costo de rodaje" style="shape=partialRectangle;connectable=0;fillColor=none;top=0;left=0;bottom=0;right=0;align=left;spacingLeft=6;overflow=hidden;" parent="dDVhKl1gEV_FFzRzYjG9-59" vertex="1">
          <mxGeometry x="30" width="220" height="30" as="geometry" />
        </mxCell>
        <mxCell id="dDVhKl1gEV_FFzRzYjG9-96" value="" style="shape=partialRectangle;collapsible=0;dropTarget=0;pointerEvents=0;fillColor=none;top=0;left=0;bottom=0;right=0;points=[[0,0.5],[1,0.5]];portConstraint=eastwest;" parent="dDVhKl1gEV_FFzRzYjG9-1" vertex="1">
          <mxGeometry y="330" width="250" height="30" as="geometry" />
        </mxCell>
        <mxCell id="dDVhKl1gEV_FFzRzYjG9-97" value="" style="shape=partialRectangle;connectable=0;fillColor=none;top=0;left=0;bottom=0;right=0;editable=1;overflow=hidden;" parent="dDVhKl1gEV_FFzRzYjG9-96" vertex="1">
          <mxGeometry width="30" height="30" as="geometry" />
        </mxCell>
        <mxCell id="dDVhKl1gEV_FFzRzYjG9-98" value="Fecha de rodaje" style="shape=partialRectangle;connectable=0;fillColor=none;top=0;left=0;bottom=0;right=0;align=left;spacingLeft=6;overflow=hidden;" parent="dDVhKl1gEV_FFzRzYjG9-96" vertex="1">
          <mxGeometry x="30" width="220" height="30" as="geometry" />
        </mxCell>
        <mxCell id="dDVhKl1gEV_FFzRzYjG9-100" value="" style="shape=partialRectangle;collapsible=0;dropTarget=0;pointerEvents=0;fillColor=none;top=0;left=0;bottom=0;right=0;points=[[0,0.5],[1,0.5]];portConstraint=eastwest;" parent="dDVhKl1gEV_FFzRzYjG9-1" vertex="1">
          <mxGeometry y="360" width="250" height="30" as="geometry" />
        </mxCell>
        <mxCell id="dDVhKl1gEV_FFzRzYjG9-101" value="" style="shape=partialRectangle;connectable=0;fillColor=none;top=0;left=0;bottom=0;right=0;editable=1;overflow=hidden;" parent="dDVhKl1gEV_FFzRzYjG9-100" vertex="1">
          <mxGeometry width="30" height="30" as="geometry" />
        </mxCell>
        <mxCell id="dDVhKl1gEV_FFzRzYjG9-102" value="Cod. de calificación de público" style="shape=partialRectangle;connectable=0;fillColor=none;top=0;left=0;bottom=0;right=0;align=left;spacingLeft=6;overflow=hidden;" parent="dDVhKl1gEV_FFzRzYjG9-100" vertex="1">
          <mxGeometry x="30" width="220" height="30" as="geometry" />
        </mxCell>
        <mxCell id="dDVhKl1gEV_FFzRzYjG9-104" value="" style="shape=partialRectangle;collapsible=0;dropTarget=0;pointerEvents=0;fillColor=none;top=0;left=0;bottom=0;right=0;points=[[0,0.5],[1,0.5]];portConstraint=eastwest;" parent="dDVhKl1gEV_FFzRzYjG9-1" vertex="1">
          <mxGeometry y="390" width="250" height="30" as="geometry" />
        </mxCell>
        <mxCell id="dDVhKl1gEV_FFzRzYjG9-105" value="" style="shape=partialRectangle;connectable=0;fillColor=none;top=0;left=0;bottom=0;right=0;editable=1;overflow=hidden;" parent="dDVhKl1gEV_FFzRzYjG9-104" vertex="1">
          <mxGeometry width="30" height="30" as="geometry" />
        </mxCell>
        <mxCell id="dDVhKl1gEV_FFzRzYjG9-106" value="Descripción calificación de público" style="shape=partialRectangle;connectable=0;fillColor=none;top=0;left=0;bottom=0;right=0;align=left;spacingLeft=6;overflow=hidden;" parent="dDVhKl1gEV_FFzRzYjG9-104" vertex="1">
          <mxGeometry x="30" width="220" height="30" as="geometry" />
        </mxCell>
        <mxCell id="dDVhKl1gEV_FFzRzYjG9-27" value="Actores" style="shape=table;startSize=30;container=1;collapsible=1;childLayout=tableLayout;fixedRows=1;rowLines=0;fontStyle=1;align=center;resizeLast=1;" parent="1" vertex="1">
          <mxGeometry x="470" y="190" width="230" height="220" as="geometry" />
        </mxCell>
        <mxCell id="dDVhKl1gEV_FFzRzYjG9-28" value="" style="shape=partialRectangle;collapsible=0;dropTarget=0;pointerEvents=0;fillColor=none;top=0;left=0;bottom=1;right=0;points=[[0,0.5],[1,0.5]];portConstraint=eastwest;" parent="dDVhKl1gEV_FFzRzYjG9-27" vertex="1">
          <mxGeometry y="30" width="230" height="30" as="geometry" />
        </mxCell>
        <mxCell id="dDVhKl1gEV_FFzRzYjG9-29" value="PK" style="shape=partialRectangle;connectable=0;fillColor=none;top=0;left=0;bottom=0;right=0;fontStyle=1;overflow=hidden;" parent="dDVhKl1gEV_FFzRzYjG9-28" vertex="1">
          <mxGeometry width="30" height="30" as="geometry" />
        </mxCell>
        <mxCell id="dDVhKl1gEV_FFzRzYjG9-30" value="Cod. País de filmación" style="shape=partialRectangle;connectable=0;fillColor=none;top=0;left=0;bottom=0;right=0;align=left;spacingLeft=6;fontStyle=5;overflow=hidden;" parent="dDVhKl1gEV_FFzRzYjG9-28" vertex="1">
          <mxGeometry x="30" width="200" height="30" as="geometry" />
        </mxCell>
        <mxCell id="dDVhKl1gEV_FFzRzYjG9-84" value="" style="shape=partialRectangle;collapsible=0;dropTarget=0;pointerEvents=0;fillColor=none;top=0;left=0;bottom=1;right=0;points=[[0,0.5],[1,0.5]];portConstraint=eastwest;" parent="dDVhKl1gEV_FFzRzYjG9-27" vertex="1">
          <mxGeometry y="60" width="230" height="30" as="geometry" />
        </mxCell>
        <mxCell id="dDVhKl1gEV_FFzRzYjG9-85" value="PK" style="shape=partialRectangle;connectable=0;fillColor=none;top=0;left=0;bottom=0;right=0;fontStyle=1;overflow=hidden;" parent="dDVhKl1gEV_FFzRzYjG9-84" vertex="1">
          <mxGeometry width="30" height="30" as="geometry" />
        </mxCell>
        <mxCell id="dDVhKl1gEV_FFzRzYjG9-86" value="Cod. Película" style="shape=partialRectangle;connectable=0;fillColor=none;top=0;left=0;bottom=0;right=0;align=left;spacingLeft=6;fontStyle=5;overflow=hidden;" parent="dDVhKl1gEV_FFzRzYjG9-84" vertex="1">
          <mxGeometry x="30" width="200" height="30" as="geometry" />
        </mxCell>
        <mxCell id="dDVhKl1gEV_FFzRzYjG9-88" value="" style="shape=partialRectangle;collapsible=0;dropTarget=0;pointerEvents=0;fillColor=none;top=0;left=0;bottom=1;right=0;points=[[0,0.5],[1,0.5]];portConstraint=eastwest;" parent="dDVhKl1gEV_FFzRzYjG9-27" vertex="1">
          <mxGeometry y="90" width="230" height="30" as="geometry" />
        </mxCell>
        <mxCell id="dDVhKl1gEV_FFzRzYjG9-89" value="PK" style="shape=partialRectangle;connectable=0;fillColor=none;top=0;left=0;bottom=0;right=0;fontStyle=1;overflow=hidden;" parent="dDVhKl1gEV_FFzRzYjG9-88" vertex="1">
          <mxGeometry width="30" height="30" as="geometry" />
        </mxCell>
        <mxCell id="dDVhKl1gEV_FFzRzYjG9-90" value="Legajo internacional del actor" style="shape=partialRectangle;connectable=0;fillColor=none;top=0;left=0;bottom=0;right=0;align=left;spacingLeft=6;fontStyle=5;overflow=hidden;" parent="dDVhKl1gEV_FFzRzYjG9-88" vertex="1">
          <mxGeometry x="30" width="200" height="30" as="geometry" />
        </mxCell>
        <mxCell id="dDVhKl1gEV_FFzRzYjG9-31" value="" style="shape=partialRectangle;collapsible=0;dropTarget=0;pointerEvents=0;fillColor=none;top=0;left=0;bottom=0;right=0;points=[[0,0.5],[1,0.5]];portConstraint=eastwest;" parent="dDVhKl1gEV_FFzRzYjG9-27" vertex="1">
          <mxGeometry y="120" width="230" height="30" as="geometry" />
        </mxCell>
        <mxCell id="dDVhKl1gEV_FFzRzYjG9-32" value="" style="shape=partialRectangle;connectable=0;fillColor=none;top=0;left=0;bottom=0;right=0;editable=1;overflow=hidden;" parent="dDVhKl1gEV_FFzRzYjG9-31" vertex="1">
          <mxGeometry width="30" height="30" as="geometry" />
        </mxCell>
        <mxCell id="dDVhKl1gEV_FFzRzYjG9-33" value="Nombre del actor" style="shape=partialRectangle;connectable=0;fillColor=none;top=0;left=0;bottom=0;right=0;align=left;spacingLeft=6;overflow=hidden;" parent="dDVhKl1gEV_FFzRzYjG9-31" vertex="1">
          <mxGeometry x="30" width="200" height="30" as="geometry" />
        </mxCell>
        <mxCell id="dDVhKl1gEV_FFzRzYjG9-34" value="" style="shape=partialRectangle;collapsible=0;dropTarget=0;pointerEvents=0;fillColor=none;top=0;left=0;bottom=0;right=0;points=[[0,0.5],[1,0.5]];portConstraint=eastwest;" parent="dDVhKl1gEV_FFzRzYjG9-27" vertex="1">
          <mxGeometry y="150" width="230" height="30" as="geometry" />
        </mxCell>
        <mxCell id="dDVhKl1gEV_FFzRzYjG9-35" value="" style="shape=partialRectangle;connectable=0;fillColor=none;top=0;left=0;bottom=0;right=0;editable=1;overflow=hidden;" parent="dDVhKl1gEV_FFzRzYjG9-34" vertex="1">
          <mxGeometry width="30" height="30" as="geometry" />
        </mxCell>
        <mxCell id="dDVhKl1gEV_FFzRzYjG9-36" value="Fecha de nacimiento" style="shape=partialRectangle;connectable=0;fillColor=none;top=0;left=0;bottom=0;right=0;align=left;spacingLeft=6;overflow=hidden;" parent="dDVhKl1gEV_FFzRzYjG9-34" vertex="1">
          <mxGeometry x="30" width="200" height="30" as="geometry" />
        </mxCell>
        <mxCell id="dDVhKl1gEV_FFzRzYjG9-37" value="" style="shape=partialRectangle;collapsible=0;dropTarget=0;pointerEvents=0;fillColor=none;top=0;left=0;bottom=0;right=0;points=[[0,0.5],[1,0.5]];portConstraint=eastwest;" parent="dDVhKl1gEV_FFzRzYjG9-27" vertex="1">
          <mxGeometry y="180" width="230" height="30" as="geometry" />
        </mxCell>
        <mxCell id="dDVhKl1gEV_FFzRzYjG9-38" value="" style="shape=partialRectangle;connectable=0;fillColor=none;top=0;left=0;bottom=0;right=0;editable=1;overflow=hidden;" parent="dDVhKl1gEV_FFzRzYjG9-37" vertex="1">
          <mxGeometry width="30" height="30" as="geometry" />
        </mxCell>
        <mxCell id="dDVhKl1gEV_FFzRzYjG9-39" value="Perfil artístico" style="shape=partialRectangle;connectable=0;fillColor=none;top=0;left=0;bottom=0;right=0;align=left;spacingLeft=6;overflow=hidden;" parent="dDVhKl1gEV_FFzRzYjG9-37" vertex="1">
          <mxGeometry x="30" width="200" height="30" as="geometry" />
        </mxCell>
        <mxCell id="dDVhKl1gEV_FFzRzYjG9-14" value="Cursos de Dirección realizados" style="shape=table;startSize=30;container=1;collapsible=1;childLayout=tableLayout;fixedRows=1;rowLines=0;fontStyle=1;align=center;resizeLast=1;" parent="1" vertex="1">
          <mxGeometry x="460" y="20" width="240" height="150" as="geometry" />
        </mxCell>
        <mxCell id="dDVhKl1gEV_FFzRzYjG9-15" value="" style="shape=partialRectangle;collapsible=0;dropTarget=0;pointerEvents=0;fillColor=none;top=0;left=0;bottom=1;right=0;points=[[0,0.5],[1,0.5]];portConstraint=eastwest;" parent="dDVhKl1gEV_FFzRzYjG9-14" vertex="1">
          <mxGeometry y="30" width="240" height="30" as="geometry" />
        </mxCell>
        <mxCell id="dDVhKl1gEV_FFzRzYjG9-16" value="PK" style="shape=partialRectangle;connectable=0;fillColor=none;top=0;left=0;bottom=0;right=0;fontStyle=1;overflow=hidden;" parent="dDVhKl1gEV_FFzRzYjG9-15" vertex="1">
          <mxGeometry width="30" height="30" as="geometry" />
        </mxCell>
        <mxCell id="dDVhKl1gEV_FFzRzYjG9-17" value="Cod. País de filmación" style="shape=partialRectangle;connectable=0;fillColor=none;top=0;left=0;bottom=0;right=0;align=left;spacingLeft=6;fontStyle=5;overflow=hidden;" parent="dDVhKl1gEV_FFzRzYjG9-15" vertex="1">
          <mxGeometry x="30" width="210" height="30" as="geometry" />
        </mxCell>
        <mxCell id="dDVhKl1gEV_FFzRzYjG9-80" value="" style="shape=partialRectangle;collapsible=0;dropTarget=0;pointerEvents=0;fillColor=none;top=0;left=0;bottom=1;right=0;points=[[0,0.5],[1,0.5]];portConstraint=eastwest;" parent="dDVhKl1gEV_FFzRzYjG9-14" vertex="1">
          <mxGeometry y="60" width="240" height="30" as="geometry" />
        </mxCell>
        <mxCell id="dDVhKl1gEV_FFzRzYjG9-81" value="PK" style="shape=partialRectangle;connectable=0;fillColor=none;top=0;left=0;bottom=0;right=0;fontStyle=1;overflow=hidden;" parent="dDVhKl1gEV_FFzRzYjG9-80" vertex="1">
          <mxGeometry width="30" height="30" as="geometry" />
        </mxCell>
        <mxCell id="dDVhKl1gEV_FFzRzYjG9-82" value="Cod. Película" style="shape=partialRectangle;connectable=0;fillColor=none;top=0;left=0;bottom=0;right=0;align=left;spacingLeft=6;fontStyle=5;overflow=hidden;" parent="dDVhKl1gEV_FFzRzYjG9-80" vertex="1">
          <mxGeometry x="30" width="210" height="30" as="geometry" />
        </mxCell>
        <mxCell id="1AU5SJPKcg5bautawqih-2" value="" style="shape=partialRectangle;collapsible=0;dropTarget=0;pointerEvents=0;fillColor=none;top=0;left=0;bottom=1;right=0;points=[[0,0.5],[1,0.5]];portConstraint=eastwest;" vertex="1" parent="dDVhKl1gEV_FFzRzYjG9-14">
          <mxGeometry y="90" width="240" height="30" as="geometry" />
        </mxCell>
        <mxCell id="1AU5SJPKcg5bautawqih-3" value="PK" style="shape=partialRectangle;connectable=0;fillColor=none;top=0;left=0;bottom=0;right=0;fontStyle=1;overflow=hidden;" vertex="1" parent="1AU5SJPKcg5bautawqih-2">
          <mxGeometry width="30" height="30" as="geometry" />
        </mxCell>
        <mxCell id="1AU5SJPKcg5bautawqih-4" value="Matrícula del Director" style="shape=partialRectangle;connectable=0;fillColor=none;top=0;left=0;bottom=0;right=0;align=left;spacingLeft=6;fontStyle=5;overflow=hidden;" vertex="1" parent="1AU5SJPKcg5bautawqih-2">
          <mxGeometry x="30" width="210" height="30" as="geometry" />
        </mxCell>
        <mxCell id="dDVhKl1gEV_FFzRzYjG9-92" value="" style="shape=partialRectangle;collapsible=0;dropTarget=0;pointerEvents=0;fillColor=none;top=0;left=0;bottom=1;right=0;points=[[0,0.5],[1,0.5]];portConstraint=eastwest;" parent="dDVhKl1gEV_FFzRzYjG9-14" vertex="1">
          <mxGeometry y="120" width="240" height="30" as="geometry" />
        </mxCell>
        <mxCell id="dDVhKl1gEV_FFzRzYjG9-93" value="PK" style="shape=partialRectangle;connectable=0;fillColor=none;top=0;left=0;bottom=0;right=0;fontStyle=1;overflow=hidden;" parent="dDVhKl1gEV_FFzRzYjG9-92" vertex="1">
          <mxGeometry width="30" height="30" as="geometry" />
        </mxCell>
        <mxCell id="dDVhKl1gEV_FFzRzYjG9-94" value="Cursos de Dirección realizados" style="shape=partialRectangle;connectable=0;fillColor=none;top=0;left=0;bottom=0;right=0;align=left;spacingLeft=6;fontStyle=5;overflow=hidden;" parent="dDVhKl1gEV_FFzRzYjG9-92" vertex="1">
          <mxGeometry x="30" width="210" height="30" as="geometry" />
        </mxCell>
        <mxCell id="dDVhKl1gEV_FFzRzYjG9-40" value="Antecedentes " style="shape=table;startSize=30;container=1;collapsible=1;childLayout=tableLayout;fixedRows=1;rowLines=0;fontStyle=1;align=center;resizeLast=1;" parent="1" vertex="1">
          <mxGeometry x="480" y="450" width="230" height="190" as="geometry" />
        </mxCell>
        <mxCell id="dDVhKl1gEV_FFzRzYjG9-41" value="" style="shape=partialRectangle;collapsible=0;dropTarget=0;pointerEvents=0;fillColor=none;top=0;left=0;bottom=1;right=0;points=[[0,0.5],[1,0.5]];portConstraint=eastwest;" parent="dDVhKl1gEV_FFzRzYjG9-40" vertex="1">
          <mxGeometry y="30" width="230" height="30" as="geometry" />
        </mxCell>
        <mxCell id="dDVhKl1gEV_FFzRzYjG9-42" value="PK" style="shape=partialRectangle;connectable=0;fillColor=none;top=0;left=0;bottom=0;right=0;fontStyle=1;overflow=hidden;" parent="dDVhKl1gEV_FFzRzYjG9-41" vertex="1">
          <mxGeometry width="30" height="30" as="geometry" />
        </mxCell>
        <mxCell id="dDVhKl1gEV_FFzRzYjG9-43" value="Cod. País de filmación" style="shape=partialRectangle;connectable=0;fillColor=none;top=0;left=0;bottom=0;right=0;align=left;spacingLeft=6;fontStyle=5;overflow=hidden;" parent="dDVhKl1gEV_FFzRzYjG9-41" vertex="1">
          <mxGeometry x="30" width="200" height="30" as="geometry" />
        </mxCell>
        <mxCell id="dDVhKl1gEV_FFzRzYjG9-116" value="" style="shape=partialRectangle;collapsible=0;dropTarget=0;pointerEvents=0;fillColor=none;top=0;left=0;bottom=1;right=0;points=[[0,0.5],[1,0.5]];portConstraint=eastwest;" parent="dDVhKl1gEV_FFzRzYjG9-40" vertex="1">
          <mxGeometry y="60" width="230" height="30" as="geometry" />
        </mxCell>
        <mxCell id="dDVhKl1gEV_FFzRzYjG9-117" value="PK" style="shape=partialRectangle;connectable=0;fillColor=none;top=0;left=0;bottom=0;right=0;fontStyle=1;overflow=hidden;" parent="dDVhKl1gEV_FFzRzYjG9-116" vertex="1">
          <mxGeometry width="30" height="30" as="geometry" />
        </mxCell>
        <mxCell id="dDVhKl1gEV_FFzRzYjG9-118" value="Cod. Película en la que intervino" style="shape=partialRectangle;connectable=0;fillColor=none;top=0;left=0;bottom=0;right=0;align=left;spacingLeft=6;fontStyle=5;overflow=hidden;" parent="dDVhKl1gEV_FFzRzYjG9-116" vertex="1">
          <mxGeometry x="30" width="200" height="30" as="geometry" />
        </mxCell>
        <mxCell id="dDVhKl1gEV_FFzRzYjG9-108" value="" style="shape=partialRectangle;collapsible=0;dropTarget=0;pointerEvents=0;fillColor=none;top=0;left=0;bottom=1;right=0;points=[[0,0.5],[1,0.5]];portConstraint=eastwest;" parent="dDVhKl1gEV_FFzRzYjG9-40" vertex="1">
          <mxGeometry y="90" width="230" height="30" as="geometry" />
        </mxCell>
        <mxCell id="dDVhKl1gEV_FFzRzYjG9-109" value="PK" style="shape=partialRectangle;connectable=0;fillColor=none;top=0;left=0;bottom=0;right=0;fontStyle=1;overflow=hidden;" parent="dDVhKl1gEV_FFzRzYjG9-108" vertex="1">
          <mxGeometry width="30" height="30" as="geometry" />
        </mxCell>
        <mxCell id="dDVhKl1gEV_FFzRzYjG9-110" value="Legajo internacional del actor" style="shape=partialRectangle;connectable=0;fillColor=none;top=0;left=0;bottom=0;right=0;align=left;spacingLeft=6;fontStyle=5;overflow=hidden;" parent="dDVhKl1gEV_FFzRzYjG9-108" vertex="1">
          <mxGeometry x="30" width="200" height="30" as="geometry" />
        </mxCell>
        <mxCell id="dDVhKl1gEV_FFzRzYjG9-44" value="" style="shape=partialRectangle;collapsible=0;dropTarget=0;pointerEvents=0;fillColor=none;top=0;left=0;bottom=0;right=0;points=[[0,0.5],[1,0.5]];portConstraint=eastwest;" parent="dDVhKl1gEV_FFzRzYjG9-40" vertex="1">
          <mxGeometry y="120" width="230" height="30" as="geometry" />
        </mxCell>
        <mxCell id="dDVhKl1gEV_FFzRzYjG9-45" value="" style="shape=partialRectangle;connectable=0;fillColor=none;top=0;left=0;bottom=0;right=0;editable=1;overflow=hidden;" parent="dDVhKl1gEV_FFzRzYjG9-44" vertex="1">
          <mxGeometry width="30" height="30" as="geometry" />
        </mxCell>
        <mxCell id="dDVhKl1gEV_FFzRzYjG9-46" value="Fecha de realización" style="shape=partialRectangle;connectable=0;fillColor=none;top=0;left=0;bottom=0;right=0;align=left;spacingLeft=6;overflow=hidden;" parent="dDVhKl1gEV_FFzRzYjG9-44" vertex="1">
          <mxGeometry x="30" width="200" height="30" as="geometry" />
        </mxCell>
        <mxCell id="dDVhKl1gEV_FFzRzYjG9-47" value="" style="shape=partialRectangle;collapsible=0;dropTarget=0;pointerEvents=0;fillColor=none;top=0;left=0;bottom=0;right=0;points=[[0,0.5],[1,0.5]];portConstraint=eastwest;" parent="dDVhKl1gEV_FFzRzYjG9-40" vertex="1">
          <mxGeometry y="150" width="230" height="30" as="geometry" />
        </mxCell>
        <mxCell id="dDVhKl1gEV_FFzRzYjG9-48" value="" style="shape=partialRectangle;connectable=0;fillColor=none;top=0;left=0;bottom=0;right=0;editable=1;overflow=hidden;" parent="dDVhKl1gEV_FFzRzYjG9-47" vertex="1">
          <mxGeometry width="30" height="30" as="geometry" />
        </mxCell>
        <mxCell id="dDVhKl1gEV_FFzRzYjG9-49" value="Papel interpretado " style="shape=partialRectangle;connectable=0;fillColor=none;top=0;left=0;bottom=0;right=0;align=left;spacingLeft=6;overflow=hidden;" parent="dDVhKl1gEV_FFzRzYjG9-47" vertex="1">
          <mxGeometry x="30" width="200" height="30" as="geometry" />
        </mxCell>
      </root>
    </mxGraphModel>
  </diagram>
</mxfile>
